<svg width="14" height="10" viewBox="0 0 14 10" fill="none" xmlns="http://www.w3.org/2000/svg">
<path d="M0.333252 1.33332C0.333252 1.15651 0.40349 0.986943 0.528514 0.861919C0.653538 0.736895 0.823108 0.666656 0.999919 0.666656H12.9999C13.1767 0.666656 13.3463 0.736895 13.4713 0.861919C13.5963 0.986943 13.6666 1.15651 13.6666 1.33332C13.6666 1.51013 13.5963 1.6797 13.4713 1.80473C13.3463 1.92975 13.1767 1.99999 12.9999 1.99999H0.999919C0.823108 1.99999 0.653538 1.92975 0.528514 1.80473C0.40349 1.6797 0.333252 1.51013 0.333252 1.33332ZM2.99992 5.33332C2.99992 5.15651 3.07016 4.98694 3.19518 4.86192C3.32021 4.73689 3.48977 4.66666 3.66659 4.66666H10.3333C10.5101 4.66666 10.6796 4.73689 10.8047 4.86192C10.9297 4.98694 10.9999 5.15651 10.9999 5.33332C10.9999 5.51013 10.9297 5.6797 10.8047 5.80473C10.6796 5.92975 10.5101 5.99999 10.3333 5.99999H3.66659C3.48977 5.99999 3.32021 5.92975 3.19518 5.80473C3.07016 5.6797 2.99992 5.51013 2.99992 5.33332ZM5.66659 8.66666C5.48977 8.66666 5.32021 8.73689 5.19518 8.86192C5.07016 8.98694 4.99992 9.15651 4.99992 9.33332C4.99992 9.51013 5.07016 9.6797 5.19518 9.80473C5.32021 9.92975 5.48977 9.99999 5.66659 9.99999H8.33325C8.51006 9.99999 8.67963 9.92975 8.80466 9.80473C8.92968 9.6797 8.99992 9.51013 8.99992 9.33332C8.99992 9.15651 8.92968 8.98694 8.80466 8.86192C8.67963 8.73689 8.51006 8.66666 8.33325 8.66666H5.66659Z" fill="#040200"/>
</svg>
