<svg width="757" height="327" viewBox="0 0 757 327" fill="none" xmlns="http://www.w3.org/2000/svg">
<path opacity="0.82" d="M292.03 184.959L298.022 159.004C301.378 144.469 315.435 135.685 329.97 139.041L323.978 164.996C320.622 179.531 306.565 188.315 292.03 184.959Z" stroke="#EFEFD0" stroke-opacity="0.4" stroke-width="1.59828"/>
<path opacity="0.71" d="M117.326 378.488L104.47 359.428C97.2706 348.755 100 334.712 110.674 327.512L123.53 346.572C130.729 357.246 128 371.289 117.326 378.488Z" stroke="#EFEFD0" stroke-opacity="0.4" stroke-width="1.37943"/>
<path opacity="0.84" d="M286.541 9.5332L296.295 -15.8769C301.757 -30.1066 317.229 -36.9953 331.459 -31.533L321.705 -6.1229C316.243 8.10678 300.771 14.9955 286.541 9.5332Z" stroke="#EFEFD0" stroke-opacity="0.4" stroke-width="1.63308"/>
<path opacity="0.62" d="M39.0345 19.793L19.8897 13.5724C9.16857 10.0889 3.48188 -1.07185 6.96538 -11.793L26.1102 -5.57243C36.8314 -2.08892 42.518 9.07185 39.0345 19.793Z" stroke="#EFEFD0" stroke-opacity="0.4" stroke-width="1.20781"/>
<path opacity="0.71" d="M634.891 242.628L622.327 223.282C615.291 212.448 618.276 198.408 629.11 191.372L641.673 210.718C648.709 221.552 645.724 235.593 634.891 242.628Z" stroke="#EFEFD0" stroke-opacity="0.4" stroke-width="1.38406"/>
<path opacity="0.8" d="M418.248 307.979L420.058 282.095C421.071 267.6 433.257 257.007 447.752 258.021L445.942 283.905C444.929 298.4 432.743 308.993 418.248 307.979Z" stroke="#EFEFD0" stroke-opacity="0.4" stroke-width="1.55686"/>
<path opacity="0.81" d="M364.399 106.73L368.988 80.7057C371.558 66.1323 385.027 56.7007 399.601 59.2704L395.012 85.2944C392.442 99.8679 378.973 109.299 364.399 106.73Z" stroke="#EFEFD0" stroke-opacity="0.4" stroke-width="1.58553"/>
<path opacity="0.82" d="M319.618 269.641L326.067 243.776C329.679 229.291 343.897 220.747 358.382 224.359L351.933 250.225C348.321 264.709 334.103 273.253 319.618 269.641Z" stroke="#EFEFD0" stroke-opacity="0.4" stroke-width="1.59945"/>
<path opacity="0.79" d="M188.665 74.7847L188.219 49.2231C187.969 34.9086 199.02 23.4652 213.335 23.2153L213.781 48.7769C214.031 63.0914 202.98 74.5348 188.665 74.7847Z" stroke="#EFEFD0" stroke-opacity="0.4" stroke-width="1.53393"/>
<path opacity="0.82" d="M300.611 359.649L307.063 333.774C310.675 319.285 324.899 310.738 339.389 314.351L332.937 340.226C329.325 354.716 315.101 363.262 300.611 359.649Z" stroke="#EFEFD0" stroke-opacity="0.4" stroke-width="1.60001"/>
<path opacity="0.61" d="M43.2286 113.436L24.0715 107.579C13.3435 104.299 7.49146 93.2926 10.7713 82.5646L29.9284 88.4215C40.6564 91.7014 46.5085 102.708 43.2286 113.436Z" stroke="#EFEFD0" stroke-opacity="0.4" stroke-width="1.20195"/>
<path opacity="0.79" d="M199.665 368.785L199.219 343.223C198.969 328.909 210.02 317.465 224.335 317.215L224.781 342.777C225.031 357.091 213.98 368.535 199.665 368.785Z" stroke="#EFEFD0" stroke-opacity="0.4" stroke-width="1.53393"/>
<path opacity="0.78" d="M480.144 119.124L478.379 93.8826C477.391 79.7476 487.721 67.8649 501.856 66.8765L503.621 92.1176C504.609 106.253 494.28 118.135 480.144 119.124Z" stroke="#EFEFD0" stroke-opacity="0.4" stroke-width="1.51817"/>
<path opacity="0.74" d="M132.399 286.699L123.8 264.299C118.985 251.755 125.057 238.116 137.601 233.301L146.2 255.701C151.015 268.245 144.943 281.884 132.399 286.699Z" stroke="#EFEFD0" stroke-opacity="0.4" stroke-width="1.43963"/>
<path opacity="0.72" d="M612.2 131.333L601.507 110.347C595.518 98.5943 600.048 84.6552 611.8 78.6669L622.493 99.6536C628.482 111.406 623.952 125.345 612.2 131.333Z" stroke="#EFEFD0" stroke-opacity="0.4" stroke-width="1.41323"/>
<path opacity="0.61" d="M43.2286 204.436L24.0715 198.579C13.3435 195.299 7.49146 184.293 10.7713 173.565L29.9284 179.422C40.6564 182.701 46.5085 193.708 43.2286 204.436Z" stroke="#EFEFD0" stroke-opacity="0.4" stroke-width="1.20195"/>
<path opacity="0.8" d="M404.848 202.343L408.033 176.408C409.816 161.885 422.628 151.874 437.152 153.658L433.967 179.592C432.184 194.116 419.372 204.126 404.848 202.343Z" stroke="#EFEFD0" stroke-opacity="0.4" stroke-width="1.56776"/>
<path opacity="0.82" d="M403.061 20.9224L409.043 -4.99128C412.393 -19.5029 426.428 -28.2726 440.939 -24.9223L434.957 0.991353C431.607 15.503 417.572 24.2726 403.061 20.9224Z" stroke="#EFEFD0" stroke-opacity="0.4" stroke-width="1.59572"/>
<path opacity="0.8" d="M220.293 268.594L223.021 242.636C224.549 228.1 237.171 217.878 251.707 219.406L248.979 245.364C247.451 259.901 234.829 270.122 220.293 268.594Z" stroke="#EFEFD0" stroke-opacity="0.4" stroke-width="1.56605"/>
<path opacity="0.67" d="M741.679 287.33L725.004 273.338C715.666 265.502 714.485 252.008 722.321 242.67L738.996 256.662C748.334 264.498 749.515 277.992 741.679 287.33Z" stroke="#EFEFD0" stroke-opacity="0.4" stroke-width="1.30609"/>
<path opacity="0.71" d="M643.891 360.628L631.327 341.282C624.291 330.448 627.276 316.408 638.11 309.372L650.673 328.718C657.709 339.552 654.724 353.593 643.891 360.628Z" stroke="#EFEFD0" stroke-opacity="0.4" stroke-width="1.38406"/>
<path opacity="0.72" d="M109.111 14.1362L97.7679 -6.3281C91.4155 -17.7881 95.4286 -31.7836 106.889 -38.136L118.232 -17.6717C124.585 -6.21163 120.571 7.78384 109.111 14.1362Z" stroke="#EFEFD0" stroke-opacity="0.4" stroke-width="1.40388"/>
<path opacity="0.68" d="M740.609 61.1067L724.479 46.0651C715.446 37.6418 714.967 23.9263 723.391 14.8934L739.521 29.935C748.554 38.3583 749.033 52.0738 740.609 61.1067Z" stroke="#EFEFD0" stroke-opacity="0.4" stroke-width="1.32331"/>
<path opacity="0.72" d="M119.658 199.275L108.622 178.518C102.441 166.895 106.718 152.906 118.342 146.726L129.378 167.482C135.559 179.106 131.282 193.095 119.658 199.275Z" stroke="#EFEFD0" stroke-opacity="0.4" stroke-width="1.41049"/>
<path opacity="0.72" d="M116.658 107.275L105.622 86.5184C99.4414 74.8948 103.718 60.9059 115.342 54.7255L126.378 75.482C132.559 87.1056 128.282 101.095 116.658 107.275Z" stroke="#EFEFD0" stroke-opacity="0.4" stroke-width="1.41049"/>
<path opacity="0.79" d="M196.665 172.785L196.219 147.223C195.969 132.909 207.02 121.465 221.335 121.215L221.781 146.777C222.031 161.091 210.98 172.535 196.665 172.785Z" stroke="#EFEFD0" stroke-opacity="0.4" stroke-width="1.53393"/>
<path opacity="0.73" d="M637.343 29.5947L628.031 7.65632C622.816 -4.62919 628.371 -18.3795 640.657 -23.5944L649.969 -1.65598C655.184 10.6295 649.629 24.3798 637.343 29.5947Z" stroke="#EFEFD0" stroke-opacity="0.4" stroke-width="1.42998"/>
<path opacity="0.76" d="M518.555 217.729L513.819 193.368C511.167 179.725 519.803 166.923 533.445 164.271L538.181 188.632C540.833 202.275 532.197 215.078 518.555 217.729Z" stroke="#EFEFD0" stroke-opacity="0.4" stroke-width="1.48906"/>
<path opacity="0.67" d="M734.976 170.863L718.65 156.163C709.508 147.931 708.792 134.28 717.024 125.137L733.35 139.837C742.492 148.069 743.208 161.72 734.976 170.863Z" stroke="#EFEFD0" stroke-opacity="0.4" stroke-width="1.31812"/>
<path opacity="0.77" d="M524.114 33.3491L521.483 8.31577C520.01 -5.70291 529.867 -17.8753 543.886 -19.3487L546.517 5.68466C547.99 19.7033 538.133 31.8757 524.114 33.3491Z" stroke="#EFEFD0" stroke-opacity="0.4" stroke-width="1.51027"/>
<path opacity="0.82" d="M266.482 99.2263L272.006 73.2382C275.099 58.6848 288.965 49.6806 303.518 52.774L297.994 78.7621C294.901 93.3155 281.035 102.32 266.482 99.2263Z" stroke="#EFEFD0" stroke-opacity="0.4" stroke-width="1.59412"/>
<path opacity="0.75" d="M535.025 320.808L529.082 296.972C525.754 283.623 533.627 270.52 546.975 267.192L552.918 291.028C556.246 304.377 548.373 317.48 535.025 320.808Z" stroke="#EFEFD0" stroke-opacity="0.4" stroke-width="1.47398"/>
<path opacity="0.63" d="M46.3594 294.094L27.6341 285.363C17.1479 280.473 12.7508 268.392 17.6405 257.906L36.3658 266.637C46.852 271.527 51.2492 283.608 46.3594 294.094Z" stroke="#EFEFD0" stroke-opacity="0.4" stroke-width="1.23966"/>
</svg>
