<svg width="32" height="32" viewBox="0 0 32 32" fill="none" xmlns="http://www.w3.org/2000/svg">
<path d="M28.9467 11.6133C30.6133 9.94665 29.8533 7.99999 28.9467 7.05332L24.9467 3.05332C23.2667 1.38665 21.3333 2.14665 20.3867 3.05332L18.12 5.33332H14.6667C12.1333 5.33332 10.6667 6.66665 9.92 8.19999L4 14.12V19.4533L3.05334 20.3867C1.38667 22.0667 2.14667 24 3.05334 24.9467L7.05333 28.9467C7.77333 29.6667 8.54667 29.9333 9.28 29.9333C10.2267 29.9333 11.0933 29.4667 11.6133 28.9467L15.2133 25.3333H20C22.2667 25.3333 23.4133 23.92 23.8267 22.5333C25.3333 22.1333 26.16 20.9867 26.4933 19.8667C28.56 19.3333 29.3333 17.3733 29.3333 16V12H28.5467L28.9467 11.6133ZM26.6667 16C26.6667 16.6 26.4133 17.3333 25.3333 17.3333H24V18.6667C24 19.2667 23.7467 20 22.6667 20H21.3333V21.3333C21.3333 21.9333 21.08 22.6667 20 22.6667H14.12L9.74667 27.04C9.33333 27.4267 9.09333 27.2 8.94667 27.0533L4.96 23.08C4.57334 22.6667 4.8 22.4267 4.94667 22.28L6.66667 20.5467V15.2133L9.33333 12.5467V14.6667C9.33333 16.28 10.4 18.6667 13.3333 18.6667C16.2667 18.6667 17.3333 16.28 17.3333 14.6667H26.6667V16ZM27.0533 9.71999L24.7867 12H14.6667V14.6667C14.6667 15.2667 14.4133 16 13.3333 16C12.2533 16 12 15.2667 12 14.6667V10.6667C12 10.0533 12.2267 7.99999 14.6667 7.99999H19.2133L22.2533 4.95999C22.6667 4.57332 22.9067 4.79999 23.0533 4.94665L27.04 8.91999C27.4267 9.33332 27.2 9.57332 27.0533 9.71999Z" fill="#FEFEF3"/>
</svg>
