<svg width="32" height="32" viewBox="0 0 32 32" fill="none" xmlns="http://www.w3.org/2000/svg">
<g clip-path="url(#clip0_241_1576)">
<path fill-rule="evenodd" clip-rule="evenodd" d="M4.10137 7.48932C4.20236 7.24574 4.37331 7.03758 4.5926 6.89114C4.81189 6.74471 5.06968 6.66659 5.33337 6.66666H18.6667C19.8924 6.66666 21.106 6.90807 22.2384 7.37711C23.3708 7.84616 24.3997 8.53365 25.2664 9.40033C26.133 10.267 26.8205 11.2959 27.2896 12.4283C27.7586 13.5606 28 14.7743 28 16C28 17.2257 27.7586 18.4393 27.2896 19.5717C26.8205 20.7041 26.133 21.733 25.2664 22.5997C24.3997 23.4663 23.3708 24.1538 22.2384 24.6229C21.106 25.0919 19.8924 25.3333 18.6667 25.3333H6.6667C6.31308 25.3333 5.97394 25.1928 5.72389 24.9428C5.47384 24.6928 5.33337 24.3536 5.33337 24C5.33337 23.6464 5.47384 23.3072 5.72389 23.0572C5.97394 22.8071 6.31308 22.6667 6.6667 22.6667H18.6667C20.4348 22.6667 22.1305 21.9643 23.3807 20.714C24.631 19.4638 25.3334 17.7681 25.3334 16C25.3334 14.2319 24.631 12.5362 23.3807 11.2859C22.1305 10.0357 20.4348 9.33332 18.6667 9.33332H8.55203L10.9427 11.724C11.1856 11.9755 11.32 12.3123 11.3169 12.6619C11.3139 13.0115 11.1737 13.3459 10.9265 13.5931C10.6792 13.8403 10.3448 13.9805 9.99523 13.9836C9.64564 13.9866 9.30884 13.8522 9.05737 13.6093L4.3907 8.94266C4.20412 8.7562 4.07704 8.51859 4.02554 8.25989C3.97404 8.00119 4.00043 7.73302 4.10137 7.48932Z" fill="#172D13"/>
</g>
<defs>
<clipPath id="clip0_241_1576">
<rect width="32" height="32" fill="white"/>
</clipPath>
</defs>
</svg>
