<svg width="108" height="34" viewBox="0 0 108 34" fill="none" xmlns="http://www.w3.org/2000/svg">
<path d="M7.528 3.216C9.78133 1.72533 12.2427 0.979997 14.912 0.979997C17.5813 0.979997 20.0773 1.72533 22.4 3.216C24.7227 4.672 26.56 6.68267 27.912 9.248C29.2987 11.7787 29.992 14.5347 29.992 17.516C29.992 20.4627 29.2987 23.2187 27.912 25.784C26.56 28.3147 24.7227 30.3253 22.4 31.816C20.0773 33.272 17.5813 34 14.912 34C12.2427 34 9.78133 33.272 7.528 31.816C5.27467 30.3253 3.48933 28.3147 2.172 25.784C0.854667 23.2533 0.196 20.4973 0.196 17.516C0.196 14.5347 0.854667 11.7787 2.172 9.248C3.48933 6.68267 5.27467 4.672 7.528 3.216ZM21.88 28.54C24.6533 26.8067 26.352 24.2587 26.976 20.896C27.6 17.4987 26.9587 14.292 25.052 11.276C23.18 8.26 20.58 6.284 17.252 5.348C13.9587 4.412 10.9253 4.81067 8.152 6.544C5.41333 8.27733 3.76667 10.808 3.212 14.136C2.65733 17.4293 3.33333 20.6013 5.24 23.652C7.14667 26.7027 9.69467 28.7133 12.884 29.684C16.0733 30.62 19.072 30.2387 21.88 28.54ZM46.0543 0.979997L58.0663 34H53.3343L49.9543 24.068C43.9223 24.068 39.277 26.304 36.0183 30.776C35.1863 31.9547 34.597 33.0293 34.2503 34H29.6743L41.6343 0.979997H46.0543ZM37.7863 23.704C38.8956 22.664 40.3516 21.8493 42.1543 21.26C43.957 20.636 45.4823 20.272 46.7303 20.168L48.5503 20.012L43.7663 4.672L37.7863 23.704ZM76.7762 18.14C78.9602 20.1853 80.5722 22.6293 81.6122 25.472C82.6522 28.3147 83.1722 31.1573 83.1722 34H79.0642C79.0642 31.3653 78.5442 28.852 77.5042 26.46C76.4988 24.068 75.1468 22.0573 73.4482 20.428C70.9175 21.7107 67.9535 22.352 64.5562 22.352V34H60.7602V0.979997H64.5562V18.868C66.2895 18.868 67.8668 18.6773 69.2882 18.296C70.7442 17.88 71.9575 17.3427 72.9282 16.684C73.9335 16.0253 74.8002 15.2107 75.5282 14.24C76.2562 13.2693 76.8282 12.2813 77.2442 11.276C77.6948 10.236 78.0415 9.092 78.2842 7.844C78.5615 6.596 78.7348 5.452 78.8042 4.412C78.9082 3.33733 78.9602 2.19333 78.9602 0.979997H82.7042C82.7042 8.71066 80.7282 14.4307 76.7762 18.14ZM107.549 30.36V34H85.6572V30.36C85.6572 28.7653 86.0732 27.1187 86.9052 25.42C87.7372 23.6867 88.7599 22.1093 89.9732 20.688C91.2212 19.2667 92.5732 17.7933 94.0292 16.268C95.4852 14.7427 96.8199 13.356 98.0332 12.108C99.2812 10.86 100.321 9.57733 101.153 8.26C101.985 6.908 102.401 5.712 102.401 4.672H85.8132V0.979997H107.289V4.672C107.289 5.98933 106.873 7.41067 106.041 8.936C105.209 10.4613 104.169 11.8827 102.921 13.2C101.673 14.5173 100.321 15.9387 98.8652 17.464C97.4439 18.9547 96.1092 20.3587 94.8612 21.676C93.6132 22.9933 92.5732 24.432 91.7412 25.992C90.9092 27.5173 90.4932 28.9733 90.4932 30.36H107.549Z" fill="#172D13"/>
</svg>
