<svg width="63" height="20" viewBox="0 0 63 20" fill="none" xmlns="http://www.w3.org/2000/svg">
<path d="M4.92 2.24C6.22 1.38 7.64 0.949998 9.18 0.949998C10.72 0.949998 12.16 1.38 13.5 2.24C14.84 3.08 15.9 4.24 16.68 5.72C17.48 7.18 17.88 8.77 17.88 10.49C17.88 12.19 17.48 13.78 16.68 15.26C15.9 16.72 14.84 17.88 13.5 18.74C12.16 19.58 10.72 20 9.18 20C7.64 20 6.22 19.58 4.92 18.74C3.62 17.88 2.59 16.72 1.83 15.26C1.07 13.8 0.69 12.21 0.69 10.49C0.69 8.77 1.07 7.18 1.83 5.72C2.59 4.24 3.62 3.08 4.92 2.24ZM13.2 16.85C14.8 15.85 15.78 14.38 16.14 12.44C16.5 10.48 16.13 8.63 15.03 6.89C13.95 5.15 12.45 4.01 10.53 3.47C8.63 2.93 6.88 3.16 5.28 4.16C3.7 5.16 2.75 6.62 2.43 8.54C2.11 10.44 2.5 12.27 3.6 14.03C4.7 15.79 6.17 16.95 8.01 17.51C9.85 18.05 11.58 17.83 13.2 16.85ZM27.1467 0.949998L34.0767 20H31.3467L29.3967 14.27C25.9167 14.27 23.2367 15.56 21.3567 18.14C20.8767 18.82 20.5367 19.44 20.3367 20H17.6967L24.5967 0.949998H27.1467ZM22.3767 14.06C23.0167 13.46 23.8567 12.99 24.8967 12.65C25.9367 12.29 26.8167 12.08 27.5367 12.02L28.5867 11.93L25.8267 3.08L22.3767 14.06ZM44.8709 10.85C46.1309 12.03 47.0609 13.44 47.6609 15.08C48.2609 16.72 48.5609 18.36 48.5609 20H46.1909C46.1909 18.48 45.8909 17.03 45.2909 15.65C44.7109 14.27 43.9309 13.11 42.9509 12.17C41.4909 12.91 39.7809 13.28 37.8209 13.28V20H35.6309V0.949998H37.8209V11.27C38.8209 11.27 39.7309 11.16 40.5509 10.94C41.3909 10.7 42.0909 10.39 42.6509 10.01C43.2309 9.63 43.7309 9.16 44.1509 8.6C44.5709 8.04 44.9009 7.47 45.1409 6.89C45.4009 6.29 45.6009 5.63 45.7409 4.91C45.9009 4.19 46.0009 3.53 46.0409 2.93C46.1009 2.31 46.1309 1.65 46.1309 0.949998H48.2909C48.2909 5.41 47.1509 8.71 44.8709 10.85ZM62.6245 17.9V20H49.9945V17.9C49.9945 16.98 50.2345 16.03 50.7145 15.05C51.1945 14.05 51.7845 13.14 52.4845 12.32C53.2045 11.5 53.9845 10.65 54.8245 9.77C55.6645 8.89 56.4345 8.09 57.1345 7.37C57.8545 6.65 58.4545 5.91 58.9345 5.15C59.4145 4.37 59.6545 3.68 59.6545 3.08H50.0845V0.949998H62.4745V3.08C62.4745 3.84 62.2345 4.66 61.7545 5.54C61.2745 6.42 60.6745 7.24 59.9545 8C59.2345 8.76 58.4545 9.58 57.6145 10.46C56.7945 11.32 56.0245 12.13 55.3045 12.89C54.5845 13.65 53.9845 14.48 53.5045 15.38C53.0245 16.26 52.7845 17.1 52.7845 17.9H62.6245Z" fill="#D76F30"/>
</svg>
