<svg width="24" height="20" viewBox="0 0 24 20" fill="none" xmlns="http://www.w3.org/2000/svg">
<path fill-rule="evenodd" clip-rule="evenodd" d="M0.101488 1.48932C0.20248 1.24574 0.373429 1.03758 0.592721 0.891144C0.812013 0.744712 1.0698 0.66659 1.33349 0.666657H14.6668C15.8925 0.666657 17.1062 0.90807 18.2385 1.37711C19.3709 1.84616 20.3998 2.53365 21.2665 3.40033C22.1332 4.26701 22.8207 5.29591 23.2897 6.42828C23.7587 7.56065 24.0002 8.77432 24.0002 9.99999C24.0002 11.2257 23.7587 12.4393 23.2897 13.5717C22.8207 14.7041 22.1332 15.733 21.2665 16.5997C20.3998 17.4663 19.3709 18.1538 18.2385 18.6229C17.1062 19.0919 15.8925 19.3333 14.6668 19.3333H2.66682C2.3132 19.3333 1.97406 19.1928 1.72401 18.9428C1.47396 18.6928 1.33349 18.3536 1.33349 18C1.33349 17.6464 1.47396 17.3072 1.72401 17.0572C1.97406 16.8071 2.3132 16.6667 2.66682 16.6667H14.6668C16.4349 16.6667 18.1306 15.9643 19.3809 14.714C20.6311 13.4638 21.3335 11.7681 21.3335 9.99999C21.3335 8.23188 20.6311 6.53619 19.3809 5.28594C18.1306 4.0357 16.4349 3.33332 14.6668 3.33332H4.55215L6.94282 5.72399C7.1857 5.97546 7.32009 6.31226 7.31705 6.66186C7.31402 7.01145 7.17379 7.34587 6.92658 7.59308C6.67937 7.84029 6.34495 7.98052 5.99536 7.98355C5.64576 7.98659 5.30896 7.8522 5.05749 7.60932L0.390821 2.94266C0.204244 2.7562 0.0771654 2.51859 0.0256628 2.25989C-0.0258398 2.00119 0.000548114 1.73302 0.101488 1.48932Z" fill="#172D13"/>
</svg>
