<svg width="700" height="700" viewBox="0 0 700 700" fill="none" xmlns="http://www.w3.org/2000/svg">
<path d="M673.783 408.758C668.073 445.628 587.082 401.585 562.705 429.829C552.75 441.364 566.229 461.716 560.825 475.962C555.688 489.499 536.075 495.787 533.081 509.953C525.568 545.511 575.197 582.193 562.247 616.15C555.077 634.953 530.354 643.607 511.043 649.267C490.812 655.197 467.112 655.826 447.158 649.022C422.294 640.544 404.326 617.211 383.95 600.631C369.228 588.651 359.198 560.171 340.433 563.023C302.329 568.814 317.054 657.982 278.744 662.194C258.454 664.425 253.261 627.98 235.441 618.025C219.421 609.075 191.631 620.802 181.219 605.692C163.652 580.198 204.199 542.149 194.35 512.797C190.074 500.053 172.574 495.48 165.474 484.066C158.321 472.565 155.479 458.355 152.372 445.173C149.38 432.484 155.723 415.672 146.935 406.042C120.264 376.818 60.2435 404.506 30.18 378.784C14.0175 364.956 0.590754 339.613 5.99013 319.039C12.3778 294.699 42.5377 281.522 65.628 271.518C94.1403 259.165 145.152 285.839 158.803 257.924C172.09 230.752 119.923 207.783 113.556 178.214C108.753 155.905 100.396 121.169 119.92 109.355C149.775 91.2902 188.347 168.444 217.71 149.59C245.5 131.746 192.204 64.6435 221.599 49.5901C246.442 36.8672 268.339 81.6724 292.099 96.3195C307.547 105.842 322.662 117.751 339.833 123.621C352.468 127.94 366.727 131.395 379.904 129.237C398.092 126.259 412.854 97.1202 429.85 104.248C449.303 112.405 429.629 158.032 449.515 165.07C486.621 178.202 516.374 78.5537 549.429 99.924C574.06 115.848 518.487 164.007 535.722 187.74C549.004 206.028 581.579 192.536 603.344 198.634C628.024 205.549 661.313 206.429 675.279 227.921C686.687 245.477 684.272 273.52 673.271 291.335C651.902 325.941 564.852 309.327 564.878 350C564.905 390.836 680.033 368.403 673.783 408.758Z" fill="#172D13"/>
</svg>
