<svg width="260" height="221" viewBox="0 0 341 309" fill="none" xmlns="http://www.w3.org/2000/svg">
<path d="M335.891 181.379C333.036 199.814 292.541 177.792 280.353 191.915C275.375 197.682 282.115 207.858 279.412 214.981C276.844 221.75 267.037 224.893 265.541 231.977C261.784 249.755 286.599 268.096 280.124 285.075C276.538 294.476 264.177 298.803 254.521 301.634C244.406 304.599 232.556 304.913 222.579 301.511C210.147 297.272 201.163 285.605 190.975 277.315C183.614 271.326 178.599 257.086 169.217 258.512C150.165 261.407 157.527 305.991 138.372 308.097C128.227 309.213 125.63 290.99 116.72 286.013C108.711 281.538 94.8156 287.401 89.6096 279.846C80.826 267.099 101.1 248.074 96.1753 233.398C94.0371 227.026 85.2871 224.74 81.7373 219.033C78.1607 213.283 76.7395 206.177 75.1858 199.586C73.6902 193.242 76.8617 184.836 72.4676 180.021C59.1321 165.409 29.1218 179.253 14.0901 166.392C6.00879 159.478 -0.704577 146.806 1.99511 136.519C5.18894 124.349 20.2689 117.761 31.8141 112.759C46.0702 106.583 71.5763 119.919 78.4015 105.962C85.0452 92.3762 58.9613 80.8915 55.7782 66.1068C53.3767 54.9524 49.1981 37.5846 58.9602 31.6777C73.8878 22.6451 93.1735 61.2219 107.855 51.7948C121.75 42.873 95.1022 9.32176 109.799 1.79503C122.221 -4.56638 133.17 17.8362 145.05 25.1598C152.773 29.9211 160.331 35.8755 168.917 38.8105C175.234 40.9701 182.364 42.6977 188.952 41.6187C198.046 40.1293 205.427 25.5601 213.925 29.1238C223.652 33.2027 213.815 56.0162 223.758 59.535C242.311 66.1009 257.187 16.2768 273.715 26.962C286.03 34.924 258.244 59.0037 266.861 70.8698C273.502 80.0142 289.789 73.268 300.672 76.3172C313.012 79.7747 329.657 80.2147 336.64 90.9604C342.344 99.7384 341.136 113.76 335.636 122.667C324.951 139.971 281.426 131.664 281.439 152C281.453 172.418 339.016 161.202 335.891 181.379Z" fill="#172D13" stroke="black"/>
</svg>
