<svg width="550" height="350" viewBox="0 0 550 350" fill="none" xmlns="http://www.w3.org/2000/svg">
<path d="M336.891 204.379C334.036 222.814 293.541 200.792 281.353 214.915C276.375 220.682 283.115 230.858 280.412 237.981C277.844 244.75 268.037 247.893 266.541 254.977C262.784 272.755 287.599 291.096 281.124 308.075C277.538 317.476 265.177 321.803 255.521 324.634C245.406 327.599 233.556 327.913 223.579 324.511C211.147 320.272 202.163 308.605 191.975 300.315C184.614 294.326 179.599 280.086 170.217 281.512C151.165 284.407 158.527 328.991 139.372 331.097C129.227 332.213 126.63 313.99 117.72 309.013C109.711 304.538 95.8156 310.401 90.6096 302.846C81.826 290.099 102.1 271.074 97.1753 256.398C95.0371 250.026 86.2871 247.74 82.7373 242.033C79.1607 236.283 77.7395 229.177 76.1858 222.586C74.6902 216.242 77.8617 207.836 73.4676 203.021C60.1321 188.409 30.1218 202.253 15.0901 189.392C7.00879 182.478 0.295423 169.806 2.99511 159.519C6.18894 147.349 21.2689 140.761 32.8141 135.759C47.0702 129.583 72.5763 142.919 79.4015 128.962C86.0452 115.376 59.9613 103.891 56.7782 89.1068C54.3767 77.9524 50.1981 60.5846 59.9602 54.6777C74.8878 45.6451 94.1735 84.2219 108.855 74.7948C122.75 65.873 96.1022 32.3218 110.799 24.795C123.221 18.4336 134.17 40.8362 146.05 48.1598C153.773 52.9211 161.331 58.8755 169.917 61.8105C176.234 63.9701 183.364 65.6977 189.952 64.6187C199.046 63.1293 206.427 48.5601 214.925 52.1238C224.652 56.2027 214.815 79.0162 224.758 82.535C243.311 89.1009 258.187 39.2768 274.715 49.962C287.03 57.924 259.244 82.0037 267.861 93.8698C274.502 103.014 290.789 96.268 301.672 99.3172C314.012 102.775 330.657 103.215 337.64 113.96C343.344 122.738 342.136 136.76 336.636 145.667C325.951 162.971 282.426 154.664 282.439 175C282.453 195.418 340.016 184.202 336.891 204.379Z" fill="#172D13" stroke="black"/>
<path d="M108.12 154.52H112.056L103.704 185H99.912L93.672 161.24L87.384 185H83.592L75.24 154.52H79.272L85.56 179.576L91.992 154.52H95.352L101.736 179.576L108.12 154.52ZM124.071 163.256C124.679 163.256 125.287 163.336 125.895 163.496C126.503 163.624 127.143 163.912 127.815 164.36C128.519 164.776 129.127 165.304 129.639 165.944C130.183 166.584 130.631 167.448 130.983 168.536C131.335 169.624 131.511 170.856 131.511 172.232V184.76H127.863V172.664C127.863 171.736 127.799 170.936 127.671 170.264C127.575 169.56 127.383 168.904 127.095 168.296C126.839 167.688 126.423 167.224 125.847 166.904C125.303 166.584 124.615 166.424 123.783 166.424C122.183 166.424 120.839 167.112 119.751 168.488C118.663 169.864 118.119 171.208 118.119 172.52V184.76H114.471V154.28H118.119L118.167 165.896C118.743 165.16 119.543 164.536 120.567 164.024C121.623 163.512 122.791 163.256 124.071 163.256ZM136.929 163.304L142.737 180.248L148.065 163.304H151.953L146.433 178.472C146.145 179.304 145.761 180.36 145.281 181.64C144.833 182.92 144.049 184.776 142.929 187.208C141.809 189.672 140.865 191.24 140.097 191.912C139.777 192.2 139.425 192.44 139.041 192.632C138.657 192.856 138.241 193.032 137.793 193.16C137.377 193.288 137.025 193.384 136.737 193.448C136.449 193.512 136.081 193.576 135.633 193.64C135.217 193.704 134.993 193.736 134.961 193.736L134.049 190.472C135.937 190.216 137.201 189.816 137.841 189.272C138.033 189.144 138.193 189 138.321 188.84C138.481 188.68 138.609 188.536 138.705 188.408C138.833 188.28 138.961 188.104 139.089 187.88C139.217 187.656 139.313 187.496 139.377 187.4C139.441 187.304 139.521 187.096 139.617 186.776C139.745 186.488 139.825 186.296 139.857 186.2C139.889 186.136 139.969 185.912 140.097 185.528C140.257 185.176 140.337 184.968 140.337 184.904C140.561 184.264 140.673 183.944 140.673 183.944L132.897 163.304H136.929ZM181.508 181.112L182.132 183.992C180.66 184.792 178.74 185.192 176.372 185.192C173.364 185.192 170.948 184.216 169.124 182.264C167.332 180.28 166.436 177.672 166.436 174.44C166.436 171.176 167.412 168.504 169.364 166.424C171.348 164.344 173.956 163.304 177.188 163.304C179.172 163.304 180.852 163.656 182.228 164.36L181.412 167.336C180.292 166.664 178.884 166.328 177.188 166.328C174.98 166.328 173.252 167.08 172.004 168.584C170.756 170.088 170.132 171.992 170.132 174.296C170.132 176.664 170.772 178.568 172.052 180.008C173.364 181.448 175.028 182.168 177.044 182.168C178.516 182.168 180.004 181.816 181.508 181.112ZM194.759 163.256C195.367 163.256 195.975 163.336 196.583 163.496C197.191 163.624 197.831 163.912 198.503 164.36C199.207 164.776 199.815 165.304 200.327 165.944C200.871 166.584 201.319 167.448 201.671 168.536C202.023 169.624 202.199 170.856 202.199 172.232V184.76H198.551V172.664C198.551 171.736 198.487 170.936 198.359 170.264C198.263 169.56 198.071 168.904 197.783 168.296C197.527 167.688 197.111 167.224 196.535 166.904C195.991 166.584 195.303 166.424 194.471 166.424C192.871 166.424 191.527 167.112 190.439 168.488C189.351 169.864 188.807 171.208 188.807 172.52V184.76H185.159V154.28H188.807L188.855 165.896C189.431 165.16 190.231 164.536 191.255 164.024C192.311 163.512 193.479 163.256 194.759 163.256ZM214.944 163.256C217.76 163.256 220.032 164.232 221.76 166.184C223.488 168.136 224.352 170.68 224.352 173.816C224.352 175.64 224.064 177.272 223.488 178.712C222.944 180.152 222.192 181.304 221.232 182.168C220.304 183.032 219.28 183.688 218.16 184.136C217.04 184.552 215.856 184.76 214.608 184.76C211.92 184.76 209.68 183.8 207.888 181.88C206.128 179.928 205.248 177.352 205.248 174.152C205.248 170.824 206.16 168.184 207.984 166.232C209.84 164.248 212.16 163.256 214.944 163.256ZM214.848 166.04C212.896 166.04 211.408 166.84 210.384 168.44C209.36 170.008 208.848 171.88 208.848 174.056C208.848 176.328 209.408 178.216 210.528 179.72C211.648 181.192 213.072 181.928 214.8 181.928C216.496 181.928 217.904 181.176 219.024 179.672C220.176 178.168 220.752 176.264 220.752 173.96C220.752 172.712 220.56 171.512 220.176 170.36C219.792 169.208 219.136 168.2 218.208 167.336C217.312 166.472 216.192 166.04 214.848 166.04ZM236.6 163.256C239.416 163.256 241.688 164.232 243.416 166.184C245.144 168.136 246.008 170.68 246.008 173.816C246.008 175.64 245.72 177.272 245.144 178.712C244.6 180.152 243.848 181.304 242.888 182.168C241.96 183.032 240.936 183.688 239.816 184.136C238.696 184.552 237.512 184.76 236.264 184.76C233.576 184.76 231.336 183.8 229.544 181.88C227.784 179.928 226.904 177.352 226.904 174.152C226.904 170.824 227.816 168.184 229.64 166.232C231.496 164.248 233.816 163.256 236.6 163.256ZM236.504 166.04C234.552 166.04 233.064 166.84 232.04 168.44C231.016 170.008 230.504 171.88 230.504 174.056C230.504 176.328 231.064 178.216 232.184 179.72C233.304 181.192 234.728 181.928 236.456 181.928C238.152 181.928 239.56 181.176 240.68 179.672C241.832 178.168 242.408 176.264 242.408 173.96C242.408 172.712 242.216 171.512 241.832 170.36C241.448 169.208 240.792 168.2 239.864 167.336C238.968 166.472 237.848 166.04 236.504 166.04ZM248.369 183.752L249.281 180.824C250.753 181.848 252.353 182.36 254.081 182.36C255.329 182.36 256.289 182.072 256.961 181.496C257.633 180.92 257.969 180.168 257.969 179.24C257.969 178.344 257.681 177.608 257.105 177.032C256.561 176.456 255.601 175.896 254.225 175.352C250.705 174.04 248.945 172.056 248.945 169.4C248.945 167.672 249.569 166.216 250.817 165.032C252.097 163.848 253.777 163.256 255.857 163.256C257.745 163.256 259.377 163.688 260.753 164.552L259.841 167.336C258.625 166.536 257.265 166.136 255.761 166.136C254.737 166.136 253.921 166.408 253.312 166.952C252.705 167.496 252.401 168.168 252.401 168.968C252.401 169.8 252.689 170.472 253.265 170.984C253.841 171.464 254.833 171.992 256.241 172.568C258.001 173.272 259.313 174.12 260.177 175.112C261.041 176.104 261.473 177.368 261.473 178.904C261.473 180.792 260.801 182.312 259.457 183.464C258.145 184.616 256.321 185.192 253.985 185.192C251.777 185.192 249.905 184.712 248.369 183.752ZM282.224 173.144C282.224 174.072 282.24 174.664 282.272 174.92H267.632C267.76 177.128 268.448 178.888 269.696 180.2C270.976 181.512 272.576 182.168 274.496 182.168C275.968 182.168 277.456 181.816 278.96 181.112L279.584 183.992C278.112 184.792 276.192 185.192 273.824 185.192C272.224 185.192 270.768 184.856 269.456 184.184C268.144 183.512 267.088 182.648 266.288 181.592C265.52 180.504 264.928 179.352 264.512 178.136C264.096 176.888 263.888 175.656 263.888 174.44C263.888 170.856 264.832 168.104 266.72 166.184C268.608 164.232 270.88 163.256 273.536 163.256C274.784 163.256 275.92 163.48 276.944 163.928C277.968 164.344 278.8 164.904 279.44 165.608C280.08 166.312 280.608 167.112 281.024 168.008C281.472 168.904 281.776 169.784 281.936 170.648C282.128 171.512 282.224 172.344 282.224 173.144ZM267.776 172.184H278.72C278.752 170.744 278.304 169.432 277.376 168.248C276.48 167.064 275.104 166.472 273.248 166.472C271.52 166.472 270.176 167.064 269.216 168.248C268.256 169.4 267.776 170.712 267.776 172.184Z" fill="#F5F5F5"/>
<path d="M303.981 156.584C306.061 155.208 308.333 154.52 310.797 154.52C313.261 154.52 315.565 155.208 317.709 156.584C319.853 157.928 321.549 159.784 322.797 162.152C324.077 164.488 324.717 167.032 324.717 169.784C324.717 172.504 324.077 175.048 322.797 177.416C321.549 179.752 319.853 181.608 317.709 182.984C315.565 184.328 313.261 185 310.797 185C308.333 185 306.061 184.328 303.981 182.984C301.901 181.608 300.253 179.752 299.037 177.416C297.821 175.08 297.213 172.536 297.213 169.784C297.213 167.032 297.821 164.488 299.037 162.152C300.253 159.784 301.901 157.928 303.981 156.584ZM317.229 179.96C319.789 178.36 321.357 176.008 321.933 172.904C322.509 169.768 321.917 166.808 320.157 164.024C318.429 161.24 316.029 159.416 312.957 158.552C309.917 157.688 307.117 158.056 304.557 159.656C302.029 161.256 300.509 163.592 299.997 166.664C299.485 169.704 300.109 172.632 301.869 175.448C303.629 178.264 305.981 180.12 308.925 181.016C311.869 181.88 314.637 181.528 317.229 179.96ZM339.544 154.52L350.632 185H346.264L343.144 175.832C337.576 175.832 333.288 177.896 330.28 182.024C329.512 183.112 328.968 184.104 328.648 185H324.424L335.464 154.52H339.544ZM331.912 175.496C332.936 174.536 334.28 173.784 335.944 173.24C337.608 172.664 339.016 172.328 340.168 172.232L341.848 172.088L337.432 157.928L331.912 175.496ZM367.903 170.36C369.919 172.248 371.407 174.504 372.367 177.128C373.327 179.752 373.807 182.376 373.807 185H370.015C370.015 182.568 369.535 180.248 368.575 178.04C367.647 175.832 366.399 173.976 364.831 172.472C362.495 173.656 359.759 174.248 356.623 174.248V185H353.119V154.52H356.623V171.032C358.223 171.032 359.679 170.856 360.991 170.504C362.335 170.12 363.455 169.624 364.351 169.016C365.279 168.408 366.079 167.656 366.751 166.76C367.423 165.864 367.951 164.952 368.335 164.024C368.751 163.064 369.071 162.008 369.295 160.856C369.551 159.704 369.711 158.648 369.775 157.688C369.871 156.696 369.919 155.64 369.919 154.52H373.375C373.375 161.656 371.551 166.936 367.903 170.36ZM396.309 181.64V185H376.101V181.64C376.101 180.168 376.485 178.648 377.253 177.08C378.021 175.48 378.965 174.024 380.085 172.712C381.237 171.4 382.485 170.04 383.829 168.632C385.173 167.224 386.405 165.944 387.525 164.792C388.677 163.64 389.637 162.456 390.405 161.24C391.173 159.992 391.557 158.888 391.557 157.928H376.245V154.52H396.069V157.928C396.069 159.144 395.685 160.456 394.917 161.864C394.149 163.272 393.189 164.584 392.037 165.8C390.885 167.016 389.637 168.328 388.293 169.736C386.981 171.112 385.749 172.408 384.597 173.624C383.445 174.84 382.485 176.168 381.717 177.608C380.949 179.016 380.565 180.36 380.565 181.64H396.309ZM425.231 154.712L428.687 154.52V173.816C428.687 177.368 427.903 180.152 426.335 182.168C424.799 184.184 422.479 185.192 419.375 185.192C417.647 185.192 416.143 184.872 414.863 184.232C413.583 183.56 412.623 182.712 411.983 181.688C411.375 180.664 410.975 179.56 410.783 178.376C410.591 177.16 410.639 175.96 410.927 174.776C411.215 173.56 411.695 172.504 412.367 171.608L415.391 173.288C414.367 174.888 413.935 176.344 414.095 177.656C414.255 178.936 414.831 179.976 415.823 180.776C416.847 181.576 418.031 181.976 419.375 181.976C421.551 181.976 423.071 181.288 423.935 179.912C424.799 178.504 425.231 176.536 425.231 174.008V154.712ZM450.27 173.144C450.27 174.072 450.286 174.664 450.318 174.92H435.678C435.806 177.128 436.494 178.888 437.742 180.2C439.022 181.512 440.622 182.168 442.542 182.168C444.014 182.168 445.502 181.816 447.006 181.112L447.63 183.992C446.158 184.792 444.238 185.192 441.87 185.192C440.27 185.192 438.814 184.856 437.502 184.184C436.19 183.512 435.134 182.648 434.334 181.592C433.566 180.504 432.974 179.352 432.558 178.136C432.142 176.888 431.934 175.656 431.934 174.44C431.934 170.856 432.878 168.104 434.766 166.184C436.654 164.232 438.926 163.256 441.582 163.256C442.83 163.256 443.966 163.48 444.99 163.928C446.014 164.344 446.846 164.904 447.486 165.608C448.126 166.312 448.654 167.112 449.07 168.008C449.518 168.904 449.822 169.784 449.982 170.648C450.174 171.512 450.27 172.344 450.27 173.144ZM435.822 172.184H446.766C446.798 170.744 446.35 169.432 445.422 168.248C444.526 167.064 443.15 166.472 441.294 166.472C439.566 166.472 438.222 167.064 437.262 168.248C436.302 169.4 435.822 170.712 435.822 172.184ZM477.676 163.304H481.9L475.18 184.76H471.34L466.54 169.784L461.788 184.76H457.948L451.228 163.304H455.452L459.964 178.616L464.476 163.304H468.652L473.116 178.616L477.676 163.304ZM501.13 173.144C501.13 174.072 501.146 174.664 501.178 174.92H486.538C486.666 177.128 487.354 178.888 488.602 180.2C489.882 181.512 491.482 182.168 493.402 182.168C494.874 182.168 496.362 181.816 497.866 181.112L498.49 183.992C497.018 184.792 495.098 185.192 492.73 185.192C491.13 185.192 489.674 184.856 488.362 184.184C487.05 183.512 485.994 182.648 485.194 181.592C484.426 180.504 483.834 179.352 483.418 178.136C483.002 176.888 482.794 175.656 482.794 174.44C482.794 170.856 483.738 168.104 485.626 166.184C487.514 164.232 489.786 163.256 492.442 163.256C493.69 163.256 494.826 163.48 495.85 163.928C496.874 164.344 497.706 164.904 498.346 165.608C498.986 166.312 499.514 167.112 499.93 168.008C500.378 168.904 500.682 169.784 500.842 170.648C501.034 171.512 501.13 172.344 501.13 173.144ZM486.682 172.184H497.626C497.658 170.744 497.21 169.432 496.282 168.248C495.386 167.064 494.01 166.472 492.154 166.472C490.426 166.472 489.082 167.064 488.122 168.248C487.162 169.4 486.682 170.712 486.682 172.184ZM504.141 154.28H507.789V184.76H506.877C506.813 184.728 506.717 184.68 506.589 184.616C506.461 184.52 506.237 184.344 505.917 184.088C505.597 183.8 505.309 183.496 505.053 183.176C504.829 182.856 504.621 182.44 504.429 181.928C504.237 181.384 504.141 180.824 504.141 180.248V154.28ZM511.922 154.28H515.57V184.76H514.658C514.594 184.728 514.498 184.68 514.37 184.616C514.242 184.52 514.018 184.344 513.698 184.088C513.378 183.8 513.09 183.496 512.834 183.176C512.61 182.856 512.402 182.44 512.21 181.928C512.018 181.384 511.922 180.824 511.922 180.248V154.28ZM528.776 162.728C529.16 162.728 529.512 162.776 529.832 162.872V166.568C529.48 166.472 529.064 166.424 528.584 166.424C527.176 166.424 525.96 166.984 524.936 168.104C523.944 169.192 523.448 170.648 523.448 172.472V184.76H519.8V163.256L521.048 163.304C521.208 163.4 521.416 163.56 521.672 163.784C521.928 164.008 522.264 164.44 522.68 165.08C523.096 165.688 523.304 166.28 523.304 166.856C523.848 165.576 524.6 164.568 525.56 163.832C526.552 163.096 527.624 162.728 528.776 162.728ZM534.523 163.304L540.331 180.248L545.659 163.304H549.547L544.027 178.472C543.739 179.304 543.355 180.36 542.875 181.64C542.427 182.92 541.643 184.776 540.523 187.208C539.403 189.672 538.459 191.24 537.691 191.912C537.371 192.2 537.019 192.44 536.635 192.632C536.251 192.856 535.835 193.032 535.387 193.16C534.971 193.288 534.619 193.384 534.331 193.448C534.043 193.512 533.675 193.576 533.227 193.64C532.811 193.704 532.587 193.736 532.555 193.736L531.643 190.472C533.531 190.216 534.795 189.816 535.435 189.272C535.627 189.144 535.787 189 535.915 188.84C536.075 188.68 536.203 188.536 536.299 188.408C536.427 188.28 536.555 188.104 536.683 187.88C536.811 187.656 536.907 187.496 536.971 187.4C537.035 187.304 537.115 187.096 537.211 186.776C537.339 186.488 537.419 186.296 537.451 186.2C537.483 186.136 537.563 185.912 537.691 185.528C537.851 185.176 537.931 184.968 537.931 184.904C538.155 184.264 538.267 183.944 538.267 183.944L530.491 163.304H534.523Z" fill="#D76F30"/>
</svg>
